<?xml version="1.0" standalone="no"?><!DOCTYPE svg PUBLIC "-//W3C//DTD SVG 1.1//EN" "http://www.w3.org/Graphics/SVG/1.1/DTD/svg11.dtd"><svg t="1534780951671" class="icon" style="" viewBox="0 0 1024 1024" version="1.1" xmlns="http://www.w3.org/2000/svg" p-id="8307" xmlns:xlink="http://www.w3.org/1999/xlink" width="200" height="200"><defs><style type="text/css"></style></defs><path d="M976 848H96V651.456l222.4-130.832 214.72 143.152c0.032 0 0.048 0.032 0.08 0.048l0.176 0.112 0.016-0.016a47.808 47.808 0 0 0 53.904-0.496l0.032 0.032 415.504-287.664 0.016-0.016 0.48-0.336-0.032-0.048A47.824 47.824 0 0 0 1024 336a48 48 0 0 0-48-48c-10.16 0-19.536 3.2-27.296 8.576l-0.032-0.048-389.184 269.44-212.624-141.744-0.08-0.048-0.176-0.112-0.016 0.016A47.632 47.632 0 0 0 320 416c-8.88 0-17.104 2.576-24.24 6.784l-0.096-0.16L96 540.08V128a48 48 0 1 0-96 0v768a48 48 0 0 0 48 48h928a48 48 0 1 0 0-96z" fill="#ffffff" p-id="8308"></path></svg>